<svg width="92" height="147" viewBox="0 0 92 147" fill="none" xmlns="http://www.w3.org/2000/svg">
<g id="bal&#195;&#163;ozin">
<rect id="Rectangle 152" x="16.213" y="37.8213" width="60.3217" height="92.6839" rx="30.1609" fill="url(#paint0_linear_1612_7670)" stroke="url(#paint1_linear_1612_7670)"/>
<rect id="Rectangle 155" opacity="0.5" x="18.7043" y="44.1761" width="54.5913" height="83.0207" rx="27.2957" fill="url(#paint2_linear_1612_7670)"/>
<rect id="Rectangle 156" opacity="0.5" x="23.9391" y="50.2694" width="44.8696" height="72.3575" rx="22.4348" fill="url(#paint3_linear_1612_7670)"/>
<path id="Rectangle 154" d="M60.0684 131.505C59.8094 136.044 56.0466 139.645 51.4428 139.645L40.5573 139.645C35.9535 139.645 32.1906 136.044 31.9317 131.505L60.0684 131.505Z" fill="url(#paint4_linear_1612_7670)" stroke="url(#paint5_linear_1612_7670)"/>
<g id="Ellipse 55">
<mask id="path-5-inside-1_1612_7670" fill="white">
<path d="M53.1043 140.145C53.1043 141.963 52.3558 143.707 51.0235 144.992C49.6912 146.278 47.8842 147 46 147C44.1158 147 42.3088 146.278 40.9764 144.992C39.6441 143.707 38.8956 141.963 38.8956 140.145L46 140.145H53.1043Z"/>
</mask>
<path d="M53.1043 140.145C53.1043 141.963 52.3558 143.707 51.0235 144.992C49.6912 146.278 47.8842 147 46 147C44.1158 147 42.3088 146.278 40.9764 144.992C39.6441 143.707 38.8956 141.963 38.8956 140.145L46 140.145H53.1043Z" fill="url(#paint6_linear_1612_7670)" stroke="url(#paint7_radial_1612_7670)" stroke-width="2" mask="url(#path-5-inside-1_1612_7670)"/>
</g>
<path id="Vector 281" d="M89.1361 56.409L90.1718 56.1161L89.2799 55.5135L47.0811 27.0054L46.8064 26.8198L46.5285 27.0006L2.72725 55.5088L1.76149 56.1374L2.88027 56.4133C18.233 60.1999 56.968 65.5066 89.1361 56.409Z" fill="url(#paint8_linear_1612_7670)" stroke="url(#paint9_linear_1612_7670)"/>
<g id="&#229;&#141;&#129;&#228;&#185;&#157;">
<path d="M52.6899 80.1952H46.9028V74.6425H44.9787V80.1952H39.2804V82.1185H44.9787V89.1137H46.9028V82.1185H52.6899V80.1952Z" fill="url(#paint10_linear_1612_7670)"/>
<path d="M49.9666 106.139C49.5966 106.139 49.567 106.03 49.567 105.379V97.4532H45.1711C45.2155 96.3054 45.2303 95.0956 45.2303 93.8703H43.3062C43.3062 95.1266 43.3062 96.3209 43.2766 97.4532H39.6357V99.3144H43.173C42.877 102.494 41.9446 105.038 38.8956 106.666C39.3397 107.008 39.9169 107.675 40.1685 108.155C43.6171 106.217 44.6975 103.083 45.0527 99.3144H47.7317V105.379C47.7317 107.38 48.1905 107.923 49.641 107.923H51.1358C52.4975 107.923 52.9415 107.101 53.1043 104.588C52.6011 104.448 51.8611 104.123 51.4466 103.781C51.3874 105.736 51.3282 106.139 50.973 106.139H49.9666Z" fill="url(#paint11_linear_1612_7670)"/>
</g>
<path id="Vector 282" d="M46.3739 28.1813L46.3739 0" stroke="url(#paint12_linear_1612_7670)"/>
</g>
<defs>
<linearGradient id="paint0_linear_1612_7670" x1="21.9557" y1="41.2086" x2="21.9557" y2="144.222" gradientUnits="userSpaceOnUse">
<stop stop-color="#250308" stop-opacity="0"/>
<stop offset="1" stop-color="#EC1334" stop-opacity="0.66"/>
</linearGradient>
<linearGradient id="paint1_linear_1612_7670" x1="37.9421" y1="91.5491" x2="77.9193" y2="168.447" gradientUnits="userSpaceOnUse">
<stop stop-color="#A70A26" stop-opacity="0"/>
<stop offset="1" stop-color="#DA1034"/>
</linearGradient>
<linearGradient id="paint2_linear_1612_7670" x1="24.2619" y1="47.621" x2="24.2619" y2="138.909" gradientUnits="userSpaceOnUse">
<stop stop-color="#250308" stop-opacity="0"/>
<stop offset="1" stop-color="#EC1334" stop-opacity="0.66"/>
</linearGradient>
<linearGradient id="paint3_linear_1612_7670" x1="28.5069" y1="53.2718" x2="28.5069" y2="132.835" gradientUnits="userSpaceOnUse">
<stop stop-color="#250308" stop-opacity="0"/>
<stop offset="1" stop-color="#EC1334" stop-opacity="0.66"/>
</linearGradient>
<linearGradient id="paint4_linear_1612_7670" x1="46" y1="144.715" x2="46" y2="127.682" gradientUnits="userSpaceOnUse">
<stop stop-color="#870E22"/>
<stop offset="1" stop-color="#2B141A" stop-opacity="0"/>
</linearGradient>
<linearGradient id="paint5_linear_1612_7670" x1="62.0783" y1="149.666" x2="55.8946" y2="131.072" gradientUnits="userSpaceOnUse">
<stop stop-color="#8E0D24"/>
<stop offset="1" stop-color="#8E0D24" stop-opacity="0"/>
</linearGradient>
<linearGradient id="paint6_linear_1612_7670" x1="46" y1="139.185" x2="46" y2="147.548" gradientUnits="userSpaceOnUse">
<stop stop-color="#2B141A" stop-opacity="0"/>
<stop offset="1" stop-color="#6A0C25"/>
</linearGradient>
<radialGradient id="paint7_radial_1612_7670" cx="0" cy="0" r="1" gradientUnits="userSpaceOnUse" gradientTransform="translate(47.4956 144.715) rotate(102.766) scale(5.07627 5.27057)">
<stop stop-color="#8B0F23"/>
<stop offset="1" stop-color="#8B0F23" stop-opacity="0"/>
</radialGradient>
<linearGradient id="paint8_linear_1612_7670" x1="46" y1="56.2933" x2="46" y2="31.4401" gradientUnits="userSpaceOnUse">
<stop stop-color="#1F1117"/>
<stop offset="1" stop-color="#1F1117" stop-opacity="0"/>
</linearGradient>
<linearGradient id="paint9_linear_1612_7670" x1="46" y1="45.2021" x2="46" y2="64.6943" gradientUnits="userSpaceOnUse">
<stop stop-color="#0E0B11" stop-opacity="0"/>
<stop offset="1" stop-color="#670D1D"/>
</linearGradient>
<linearGradient id="paint10_linear_1612_7670" x1="46" y1="69.8884" x2="46" y2="129.151" gradientUnits="userSpaceOnUse">
<stop/>
<stop offset="1" stop-color="#2F0A14" stop-opacity="0.29"/>
</linearGradient>
<linearGradient id="paint11_linear_1612_7670" x1="46" y1="69.8884" x2="46" y2="129.151" gradientUnits="userSpaceOnUse">
<stop/>
<stop offset="1" stop-color="#2F0A14" stop-opacity="0.29"/>
</linearGradient>
<linearGradient id="paint12_linear_1612_7670" x1="46.8739" y1="1.66466e-08" x2="46.8739" y2="28.1813" gradientUnits="userSpaceOnUse">
<stop stop-color="#610D1B" stop-opacity="0"/>
<stop offset="1" stop-color="#480B15"/>
</linearGradient>
</defs>
</svg>
