<svg width="32" height="32" viewBox="0 0 32 32" fill="none" xmlns="http://www.w3.org/2000/svg">
<g id="Facebook">
<rect width="32" height="32" rx="16" fill="#F2EFF5"/>
<path id="Combined Shape" fill-rule="evenodd" clip-rule="evenodd" d="M16 0C7.16344 0 0 7.16344 0 16C0 24.8366 7.16344 32 16 32C24.8366 32 32 24.8366 32 16C32 7.16344 24.8366 0 16 0ZM17.6673 16.7028V25.4077H14.0656V16.7031H12.2662V13.7034H14.0656V11.9024C14.0656 9.4552 15.0817 8 17.9684 8H20.3716V11.0001H18.8694C17.7457 11.0001 17.6714 11.4193 17.6714 12.2017L17.6673 13.7031H20.3886L20.0702 16.7028H17.6673Z" fill="#921023"/>
</g>
</svg>
