<svg xmlns="http://www.w3.org/2000/svg" width="80" height="80" fill="none"><g id="Group 149"><path id="Ellipse 5" fill="#EC1334" d="M0 40a40 40 0 1 1 80 0 40 40 0 1 1-80 0" opacity=".2" style="stroke-dasharray:252 254;stroke-dashoffset:253;animation:sikTdWgf_draw 2000ms linear 0ms forwards"/><path id="Ellipse 4" fill="#EC1334" d="M6.557 40a33.443 33.443 0 1 1 66.886 0 33.443 33.443 0 1 1-66.886 0" opacity=".6" style="stroke-dasharray:211 213;stroke-dashoffset:212;animation:sikTdWgf_draw 2000ms linear 333ms forwards"/><path id="Ellipse 3" fill="#EC1334" d="M13.77 40a26.23 26.23 0 1 1 52.46 0 26.23 26.23 0 1 1-52.46 0" style="stroke-dasharray:165 167;stroke-dashoffset:166;animation:sikTdWgf_draw 2000ms linear 666ms forwards"/><path id="Polygon 1" fill="#F2EFF5" d="M52.208 39.127a1 1 0 0 1 0 1.746L32.963 51.628a1 1 0 0 1-1.488-.873v-21.51a1 1 0 0 1 1.488-.873l19.245 10.755Z" style="stroke-dasharray:72 74;stroke-dashoffset:73;animation:sikTdWgf_draw 2000ms linear 1000ms forwards"/></g><style data-made-with="vivus-instant">@keyframes sikTdWgf_draw{to{stroke-dashoffset:0}}@keyframes sikTdWgf_fade{0%,94.44444444444444%{stroke-opacity:1}to{stroke-opacity:0}}</style></svg>