<svg width="32" height="32" viewBox="0 0 32 32" fill="none" xmlns="http://www.w3.org/2000/svg">
<g id="Group 158">
<path id="Combined Shape" fill-rule="evenodd" clip-rule="evenodd" d="M16 0C7.16344 0 0 7.16344 0 16C0 24.8366 7.16344 32 16 32C24.8366 32 32 24.8366 32 16C32 7.16344 24.8366 0 16 0ZM12.4831 7.51751C13.3933 7.47609 13.6842 7.46595 16.0017 7.46595H15.999C18.3173 7.46595 18.607 7.47609 19.5173 7.51751C20.4257 7.55911 21.0462 7.70293 21.5902 7.91396C22.152 8.13174 22.6266 8.4233 23.1013 8.89797C23.576 9.37228 23.8675 9.84838 24.0862 10.4096C24.296 10.9522 24.44 11.5723 24.4827 12.4808C24.5236 13.391 24.5342 13.6818 24.5342 15.9994C24.5342 18.3169 24.5236 18.607 24.4827 19.5173C24.44 20.4254 24.296 21.0456 24.0862 21.5884C23.8675 22.1495 23.576 22.6256 23.1013 23.0999C22.6272 23.5746 22.1518 23.8668 21.5907 24.0848C21.0478 24.2958 20.427 24.4396 19.5185 24.4812C18.6083 24.5227 18.3183 24.5328 16.0006 24.5328C13.6833 24.5328 13.3926 24.5227 12.4824 24.4812C11.5741 24.4396 10.9538 24.2958 10.4109 24.0848C9.84998 23.8668 9.37388 23.5746 8.89975 23.0999C8.42525 22.6256 8.13369 22.1495 7.91556 21.5882C7.70471 21.0456 7.56089 20.4256 7.51911 19.5171C7.47786 18.6069 7.46755 18.3169 7.46755 15.9994C7.46755 13.6818 7.47822 13.3908 7.51893 12.4806C7.55982 11.5725 7.70382 10.9522 7.91538 10.4094C8.13405 9.84838 8.42561 9.37228 8.90028 8.89797C9.37459 8.42347 9.85069 8.13192 10.4119 7.91396C10.9545 7.70293 11.5746 7.55911 12.4831 7.51751Z" fill="#921023"/>
<path id="Combined Shape_2" fill-rule="evenodd" clip-rule="evenodd" d="M15.236 9.00506C15.3846 9.00483 15.5445 9.0049 15.7171 9.00498L16.0015 9.00506C18.2799 9.00506 18.55 9.01324 19.4497 9.05413C20.2817 9.09218 20.7333 9.2312 21.0341 9.348C21.4323 9.50267 21.7162 9.68756 22.0147 9.98623C22.3134 10.2849 22.4983 10.5693 22.6533 10.9676C22.7701 11.268 22.9093 11.7196 22.9472 12.5516C22.9881 13.4512 22.9969 13.7214 22.9969 15.9987C22.9969 18.2761 22.9881 18.5463 22.9472 19.4459C22.9091 20.2779 22.7701 20.7294 22.6533 21.0299C22.4986 21.4281 22.3134 21.7117 22.0147 22.0102C21.716 22.3088 21.4325 22.4937 21.0341 22.6484C20.7336 22.7657 20.2817 22.9044 19.4497 22.9424C18.5501 22.9833 18.2799 22.9922 16.0015 22.9922C13.7229 22.9922 13.4528 22.9833 12.5533 22.9424C11.7213 22.904 11.2697 22.765 10.9687 22.6482C10.5705 22.4936 10.2861 22.3087 9.98738 22.01C9.68871 21.7113 9.50382 21.4276 9.3488 21.0292C9.232 20.7287 9.09279 20.2772 9.05493 19.4452C9.01404 18.5456 9.00586 18.2754 9.00586 15.9966C9.00586 13.7178 9.01404 13.449 9.05493 12.5495C9.09297 11.7174 9.232 11.2659 9.3488 10.9651C9.50346 10.5669 9.68871 10.2824 9.98738 9.98374C10.2861 9.68507 10.5705 9.50018 10.9687 9.34516C11.2695 9.22782 11.7213 9.08915 12.5533 9.05093C13.3405 9.01537 13.6456 9.00471 15.236 9.00293V9.00506ZM20.5553 10.4217C19.9899 10.4217 19.5313 10.8799 19.5313 11.4454C19.5313 12.0107 19.9899 12.4694 20.5553 12.4694C21.1206 12.4694 21.5793 12.0107 21.5793 11.4454C21.5793 10.88 21.1206 10.4214 20.5553 10.4214V10.4217ZM11.6178 15.9999C11.6178 13.5798 13.5798 11.6177 15.9999 11.6176C18.42 11.6176 20.3816 13.5797 20.3816 15.9999C20.3816 18.42 18.4202 20.3812 16.0001 20.3812C13.5799 20.3812 11.6178 18.42 11.6178 15.9999Z" fill="#921023"/>
<path id="Shape" fill-rule="evenodd" clip-rule="evenodd" d="M16.0007 13.1559C17.5716 13.1559 18.8452 14.4293 18.8452 16.0004C18.8452 17.5712 17.5716 18.8448 16.0007 18.8448C14.4297 18.8448 13.1562 17.5712 13.1562 16.0004C13.1562 14.4293 14.4297 13.1559 16.0007 13.1559V13.1559Z" fill="#921023"/>
</g>
</svg>
