<svg width="32" height="32" viewBox="0 0 32 32" fill="none" xmlns="http://www.w3.org/2000/svg">
<g id="Telegram">
<rect width="32" height="32" rx="16" fill="#F2EFF5"/>
<path id="Combined Shape" fill-rule="evenodd" clip-rule="evenodd" d="M32 16C32 24.8366 24.8366 32 16 32C7.16344 32 0 24.8366 0 16C0 7.16344 7.16344 0 16 0C24.8366 0 32 7.16344 32 16ZM13.339 19.255L13.3403 19.256L13.0681 23.3333C13.4572 23.3333 13.6351 23.1601 13.85 22.9509L13.8681 22.9333L15.7892 21.0653L19.787 24.0189C20.5228 24.4249 21.0539 24.2147 21.2371 23.3358L23.8618 10.9674C24.1305 9.89001 23.4511 9.40137 22.7472 9.72094L7.33521 15.6637C6.2832 16.0857 6.28933 16.6726 7.14345 16.9341L11.0985 18.1686L20.2549 12.3919C20.6872 12.1298 21.0839 12.2707 20.7583 12.5597L13.339 19.255Z" fill="#921023"/>
</g>
</svg>
