<svg width="32" height="32" viewBox="0 0 32 32" fill="none" xmlns="http://www.w3.org/2000/svg">
<g id="Youtube">
<rect width="32" height="32" rx="16" fill="#F2EFF5"/>
<path id="Combined Shape" fill-rule="evenodd" clip-rule="evenodd" d="M16 0C7.16344 0 0 7.16344 0 16C0 24.8366 7.16344 32 16 32C24.8366 32 32 24.8366 32 16C32 7.16344 24.8366 0 16 0ZM22.6684 10.4993C23.4028 10.7008 23.9811 11.2946 24.1774 12.0486C24.534 13.4151 24.534 16.2664 24.534 16.2664C24.534 16.2664 24.534 19.1177 24.1774 20.4843C23.9811 21.2383 23.4028 21.8321 22.6684 22.0337C21.3376 22.3998 16.0007 22.3998 16.0007 22.3998C16.0007 22.3998 10.6638 22.3998 9.33285 22.0337C8.5985 21.8321 8.02017 21.2383 7.82391 20.4843C7.46735 19.1177 7.46735 16.2664 7.46735 16.2664C7.46735 16.2664 7.46735 13.4151 7.82391 12.0486C8.02017 11.2946 8.5985 10.7008 9.33285 10.4993C10.6638 10.1331 16.0007 10.1331 16.0007 10.1331C16.0007 10.1331 21.3376 10.1331 22.6684 10.4993Z" fill="#921023"/>
<path id="Fill 2" fill-rule="evenodd" clip-rule="evenodd" d="M14.3994 19.2003V13.8669L18.6661 16.5337L14.3994 19.2003Z" fill="#921023"/>
</g>
</svg>
